<?xml version="1.0" encoding="utf-8"?>
<!-- Generator: Adobe Illustrator 16.0.0, SVG Export Plug-In . SVG Version: 6.00 Build 0)  -->
<!DOCTYPE svg PUBLIC "-//W3C//DTD SVG 1.1//EN" "http://www.w3.org/Graphics/SVG/1.1/DTD/svg11.dtd">
<svg version="1.1" id="Layer_1" xmlns="http://www.w3.org/2000/svg" xmlns:xlink="http://www.w3.org/1999/xlink" x="0px" y="0px"
	 width="300px" height="300px" viewBox="0 0 300 300" enable-background="new 0 0 300 300" xml:space="preserve">
<g>
	<path d="M271.615,66.989L161.613,3.418c-7.013-4.055-15.696-4.055-22.71,0L28.63,66.989C21.616,71.044,17,78.52,17,86.621v127.143
		c0,8.101,4.61,15.577,11.622,19.631l110.119,63.572c7.013,4.054,15.756,4.054,22.77,0l110.067-63.572
		C278.59,229.34,283,221.864,283,213.764V86.621C283,78.52,278.628,71.044,271.615,66.989z M258,202.778
		c0,5.4-2.919,10.399-7.599,13.096l-91.088,52.499c-4.68,2.697-10.428,2.697-15.106,0l-91.357-52.499
		C48.17,213.177,45,208.179,45,202.778v-57.535c1,16.292,10.887,30.331,24.842,40.984l2.851,1.979
		c0.576,0.427,1.16,0.837,1.744,1.241c-0.28,0.803-0.486,1.636-0.593,2.495l-2.312,18.804c-0.77,6.263,3.406,12.067,9.59,13.326
		l72.922,14.846c0.807,0.165,1.616,0.244,2.416,0.244c4.449,0,8.625-2.462,10.734-6.528c0.045-0.089,4.72-8.921,13.003-8.921
		c0.17,0,0.34,0.003,0.515,0.01c0.6,0.024,1.206,0.036,1.807,0.036c13.271,0,23.788-5.795,30.072-9.257
		c0.513-0.283,1.122-0.618,1.662-0.907c1.408,0.343,3.379,0.727,5.843,0.727c2.425,0,4.905-0.363,7.583-1.11
		c8.949-2.495,14.019-10.184,15.74-18.129c1.916-2.631,3.511-6.343,4.422-11.541c0.874-4.989,1.067-10.8,0.497-14.804
		c-1.299-9.091-5.679-12.364-10.053-14.937c-0.57-0.335-0.961-0.651-1.551-1.038c-2.141-1.404-6.733-4.639-8.733-7.278v-38.969
		l-76.104-43.786l-17.883,10.266c-7.404-2.806-15.234-4.227-23.28-4.227c-13.336,0-24.347,3.123-34.614,9.83l-2.973,1.863
		C57.467,90.705,47,106.326,45,125.662V97.78c0-5.4,3.167-10.399,7.845-13.096l91.215-52.498c4.678-2.698,10.488-2.698,15.168,0
		l91.141,52.498C255.046,87.381,258,92.38,258,97.78V202.778z M79.167,115.667c4.376,4.717,10.048,7.897,16.254,9.189
		c-2.507,3.044-3.786,6.414-4.153,10.985c-4.604,4.004-10.675,6.682-17.256,6.682c-10.784,0-20.048-6.168-24.076-15.473
		c2.018-16.611,9.587-30.314,21.958-39.915c-0.62,2.448-0.934,4.992-0.934,7.614C70.96,102.536,73.874,109.964,79.167,115.667z
		 M173.411,122.028c1.175-2.14,0.755-4.62,0.152-6.808l-0.07-0.229l-0.024-0.072c-0.654-2.099-1.374-4.109-2.146-6.057
		c4.003,3.36,7.21,13.294,12.352,16.463c17.892,11.031,30.712,21.688,33.623,26.346c2.912,4.658,8.442,8.441,12.664,11.208
		c4.221,2.764,5.677,2.474,6.404,7.568c0.729,5.094-0.437,18.048-4.366,18.631c0,0-0.147,10.414-7.57,12.484
		c-1.761,0.491-3.161,0.666-4.334,0.666c-2.864,0-4.367-1.041-6.435-1.041c-0.652,0-1.36,0.104-2.186,0.375
		c-4.373,1.443-15.173,10.104-28.956,10.104c-0.436,0-0.877-0.01-1.318-0.027c-0.339-0.014-0.672-0.02-1.004-0.02
		c-13.792,0-21.75,11.61-23.74,15.448l-72.923-14.846l2.05-16.671c7.625,3.165,15.932,4.72,25.097,4.72
		c0.97,0,2.701-0.085,4.091-0.153l2.729-0.208c21.267-1.755,36.788-15.768,42.239-21.629c1.603-1.724,2.486-4.017,2.896-6.46
		c7.548-10.491,12.007-23.354,12.007-37.265C174.644,130.266,174.218,126.077,173.411,122.028z M121.716,166.407
		c2.543,0.479,5.03,0.775,7.584,0.775c6.945,0,14.399-2.184,24.94-8.801c0.201-0.126,0.403-0.186,0.602-0.186
		c2.923,0,5.472,12.806,1.576,16.996c-7.962,8.561-21.643,18.595-38.745,20.008c4.254-4.662,6.593-10.564,6.593-17.372
		C124.266,173.578,123.511,169.958,121.716,166.407z M114.324,192.143c-0.886,0.97-1.815,2.506-3.043,3.561
		c-0.958,0.044-1.222,0.022-1.796,0.022c-11.446,0-23.923-3.629-34.093-11.164c1.029,0.124,2.189,0.149,3.252,0.149
		c14.022,0,24.945-11.117,25.66-24.799c3.703,2.731,6.869,4.318,12.125,5.516c0.438,0.888,1.067,2.049,1.402,2.988
		c1.077,3.019,1.899,5.75,1.899,9.411C119.73,183.396,117.911,188.212,114.324,192.143z M167.874,120.518
		c-1.76,0-4.794-0.896-8.826-0.896c-2.455,0-5.278,0.333-8.413,1.4c-10.14,3.453-12.859,10.08-15.084,10.08
		c-0.68,0-1.315-0.621-2.103-2.143c-3.56-7.184-7.834-12.543-16.032-12.953c-1.424-3.233-2.13-6.121-2.129-9.88
		c0-13.898,10.928-24.741,24.599-25.639c15.317,7.272,24.165,19.419,29.267,35.824l0.038,0.115
		C170.089,119.686,169.57,120.518,167.874,120.518z M119.211,85.268c-5.455,5.601-8.459,13.009-8.459,20.858
		c0,3.52,0.536,6.549,1.741,9.785c-5.324,0.151-9.128,1.508-12.882,4.981c-13.498-1.074-24.116-12.368-24.116-26.141
		c0-4.526,1.069-8.64,3.088-12.355c9.611-6.279,19.777-9.092,32.114-9.092c7.645,0,14.962,1.403,21.71,3.962
		C127.407,78.783,122.866,81.513,119.211,85.268z M50,135.111c0.31,0.458,1.718,2.226,2.063,2.605
		c0.002,0.003,0.359,0.384,0.539,0.569c0.113,0.117,0.877,0.87,1.155,1.121c0.054,0.049,0.108,0.098,0.163,0.147
		c2.313,2.059,5.046,3.745,8.028,4.992c0.006,0.002,0.011,0.004,0.017,0.007c0.573,0.239,1.156,0.461,1.747,0.668
		c0.099,0.034,0.199,0.064,0.298,0.098c0.52,0.176,1.044,0.344,1.575,0.495c0.651,0.182,1.308,0.352,1.973,0.494
		c0.059,0.013,0.119,0.024,0.179,0.037c0.411,0.086,0.824,0.167,1.239,0.238c0.498,0.083,0.996,0.162,1.499,0.222
		c0.097,0.012,0.194,0.021,0.292,0.032c0.509,0.059,1.019,0.107,1.531,0.142c0.34,0.021,0.681,0.031,1.022,0.042
		c0.295,0.01,0.589,0.03,0.885,0.032c0.018,0,0.035,0.001,0.052,0.001c6.006-0.033,12.151-1.955,17.285-5.478
		c0.002,0.025-0.038,0.026,0,0c0.087,1.16-0.15,5.565,3.163,9.159s3.736,3.992,5.334,5.357c0.18,1.112-0.125,3.814-0.146,4.057
		c-0.081,1.259-0.224,2.488-0.51,3.676c-0.596,2.286-1.542,4.427-2.771,6.362c-3.705,6.022-10.197,9.988-17.659,9.988l-0.009-0.013
		c-0.1,0.001-0.196,0.015-0.296,0.015l-5.493-0.23c-1.411-0.048-1.763-0.13-3.808-0.218c-13.797-10.947-19.831-23.997-19.838-43.413
		c0,0,0.023-1.894,0.023-1.878C49.584,134.438,49.756,134.714,50,135.111z"/>
</g>
</svg>
